<?xml version="1.0" standalone="no"?>
<!DOCTYPE svg PUBLIC "-//W3C//DTD SVG 20010904//EN"
 "http://www.w3.org/TR/2001/REC-SVG-20010904/DTD/svg10.dtd">
<svg version="1.0" xmlns="http://www.w3.org/2000/svg"
 width="300.000000pt" height="73.000000pt" viewBox="0 0 300.000000 73.000000"
 preserveAspectRatio="xMidYMid meet">
<metadata>
Created by potrace 1.10, written by Peter Selinger 2001-2011
</metadata>
<g transform="translate(0.000000,73.000000) scale(0.100000,-0.100000)"
fill="#000000" stroke="none">
<path d="M164 666 c-2 -6 -28 -135 -59 -286 -30 -151 -58 -283 -61 -292 -5
-16 3 -18 70 -18 l76 0 0 33 c0 69 7 77 66 77 50 0 54 -2 54 -24 0 -13 3 -38
6 -55 l7 -31 71 0 72 0 -42 198 c-23 108 -52 244 -64 303 l-22 105 -85 0 c-51
0 -87 -4 -89 -10z m146 -46 c6 -11 14 -39 19 -62 17 -86 43 -206 67 -317 22
-100 23 -116 11 -129 -24 -23 -55 -6 -63 34 -8 43 -37 64 -89 64 -51 0 -80
-20 -95 -64 -12 -36 -30 -49 -55 -40 -20 8 -19 20 11 159 14 66 29 140 34 165
24 117 41 194 46 202 3 4 27 8 54 8 39 0 52 -4 60 -20z"/>
<path d="M232 538 c-18 -23 -33 -99 -35 -176 -2 -72 -1 -77 24 -90 33 -20 76
-9 90 22 13 27 -12 202 -34 240 -19 35 -20 -2 -3 -119 9 -58 16 -110 16 -115
0 -10 -63 -14 -72 -5 -3 3 -1 27 3 53 9 49 27 202 23 202 -1 0 -6 -6 -12 -12z"/>
<path d="M450 608 l0 -68 53 0 52 0 -3 -235 -3 -235 70 0 71 0 0 235 0 235 53
0 53 0 -2 66 -1 67 -172 1 -171 1 0 -67z m305 3 c0 -18 -8 -27 -30 -34 -66
-21 -65 -19 -65 -248 0 -195 -1 -209 -19 -219 -11 -5 -27 -7 -35 -4 -17 6 -17
19 -17 302 0 128 -10 156 -60 166 -31 6 -45 26 -35 51 5 13 26 15 133 13 128
-3 128 -3 128 -27z"/>
<path d="M860 374 l0 -304 70 0 70 0 0 125 0 125 40 0 40 0 0 -125 0 -125 70
0 70 0 0 304 0 304 -70 0 -70 0 0 -114 0 -114 -40 0 -40 0 0 114 0 114 -70 0
-70 0 0 -304z m95 254 c2 -7 6 -49 8 -92 3 -68 7 -82 27 -98 29 -23 72 -23
101 0 20 17 23 29 24 100 2 108 1 104 33 100 l27 -3 5 -235 c6 -277 5 -286
-21 -293 -37 -10 -49 18 -49 115 0 107 -11 128 -70 128 -60 0 -73 -24 -72
-127 1 -98 -8 -124 -39 -118 -12 3 -24 7 -28 11 -7 7 -10 493 -3 512 2 6 15
12 28 12 14 0 26 -6 29 -12z"/>
<path d="M1320 373 l0 -303 160 0 160 0 0 65 0 65 -95 0 -95 0 0 60 0 60 85 0
85 0 0 60 0 60 -85 0 -85 0 0 55 0 55 90 0 90 0 0 63 0 62 -155 0 -155 0 0
-302z m269 249 c16 -29 -6 -42 -70 -42 -50 0 -60 -3 -78 -26 -13 -16 -21 -41
-21 -64 0 -53 30 -77 100 -82 48 -3 55 -6 58 -26 2 -12 -1 -23 -7 -23 -6 -1
-20 -3 -31 -4 -11 -1 -33 -3 -50 -4 -47 -2 -70 -32 -70 -91 0 -50 22 -89 53
-91 122 -9 132 -12 125 -45 -3 -17 -15 -19 -112 -22 -69 -2 -113 1 -120 8 -14
14 -17 500 -3 518 6 8 42 12 113 12 90 0 105 -2 113 -18z"/>
<path d="M1720 374 l0 -304 65 0 65 0 0 168 c0 92 -4 174 -9 181 -14 23 -20
-15 -24 -167 -4 -136 -10 -158 -44 -145 -11 4 -13 54 -11 267 l3 261 37 3 c28
2 39 -1 47 -17 11 -19 34 -112 46 -180 l6 -35 -22 20 -22 19 7 -40 c4 -22 24
-106 43 -188 l36 -147 73 0 74 0 0 304 0 305 -65 0 -65 0 0 -82 c0 -45 3 -126
7 -180 9 -141 26 -100 33 78 5 127 7 140 24 143 10 2 22 -2 26 -9 5 -7 9 -124
9 -260 1 -231 -1 -249 -18 -258 -25 -14 -61 -9 -71 9 -12 22 -40 132 -46 183
-5 39 -5 41 10 22 15 -20 15 -20 16 3 0 22 -67 330 -75 342 -2 4 -38 7 -80 7
l-75 1 0 -304z"/>
<path d="M2275 656 c-2 -12 -15 -75 -29 -141 -14 -66 -39 -190 -57 -275 -17
-85 -33 -158 -36 -162 -2 -5 29 -8 70 -8 l75 0 7 55 6 55 54 0 54 0 6 -55 7
-55 75 0 c66 0 74 2 69 18 -5 17 -60 276 -97 457 -11 55 -22 107 -25 116 -3
12 -21 15 -89 15 -78 0 -86 -2 -90 -20z m153 -43 c5 -16 26 -109 46 -208 20
-99 42 -201 48 -226 13 -54 7 -76 -19 -74 -28 2 -40 12 -48 42 -12 48 -33 63
-90 63 -56 0 -76 -14 -90 -60 -4 -14 -12 -31 -17 -37 -12 -15 -44 -17 -53 -3
-7 12 71 409 101 513 4 13 16 17 58 17 49 0 54 -2 64 -27z"/>
<path d="M2343 538 c-14 -17 -43 -159 -43 -209 0 -43 26 -69 71 -69 45 0 63
31 55 97 -11 104 -25 166 -40 182 -14 13 -15 9 -10 -40 3 -30 10 -78 15 -108
16 -94 14 -101 -26 -101 -41 0 -40 -7 -19 141 8 61 13 113 11 115 -2 3 -9 -1
-14 -8z"/>
<path d="M2880 415 c0 -34 1 -35 40 -35 39 0 40 1 40 35 0 34 -1 35 -40 35
-39 0 -40 -1 -40 -35z"/>
<path d="M2650 340 c-11 -11 -20 -24 -20 -29 0 -5 -3 -16 -6 -25 -5 -13 1 -16
29 -16 27 0 37 5 42 21 9 29 40 20 40 -11 0 -20 -8 -27 -40 -38 -62 -20 -75
-37 -75 -97 0 -35 5 -57 16 -65 23 -20 75 -16 90 5 13 17 14 17 14 2 0 -13 9
-17 40 -17 l40 0 0 104 c0 157 -16 186 -104 186 -33 0 -52 -6 -66 -20z m130
-117 c0 -25 -1 -26 -16 -11 -9 9 -13 21 -10 27 13 20 26 11 26 -16z m-53 -91
c-8 -8 -20 -11 -26 -8 -19 12 -12 54 12 71 21 15 22 15 25 -16 2 -19 -3 -38
-11 -47z"/>
<path d="M2878 215 l-3 -145 43 0 42 0 0 145 0 145 -39 0 -40 0 -3 -145z"/>
</g>
</svg>
