<?xml version="1.0" standalone="no"?>
<!DOCTYPE svg PUBLIC "-//W3C//DTD SVG 20010904//EN"
 "http://www.w3.org/TR/2001/REC-SVG-20010904/DTD/svg10.dtd">
<svg version="1.0" xmlns="http://www.w3.org/2000/svg"
 width="300.000000pt" height="73.000000pt" viewBox="0 0 300.000000 73.000000"
 preserveAspectRatio="xMidYMid meet">
<metadata>
Created by potrace 1.10, written by Peter Selinger 2001-2011
</metadata>
<g transform="translate(0.000000,73.000000) scale(0.100000,-0.100000)"
fill="#000000" stroke="none">
<path d="M166 653 c-3 -10 -21 -97 -41 -193 -20 -96 -45 -217 -55 -267 -28
-131 -31 -123 45 -123 l64 0 6 38 c4 20 7 44 8 52 2 11 18 16 59 18 l56 3 7
-56 7 -55 69 0 c38 0 69 4 69 10 0 5 -13 69 -29 142 -15 73 -43 204 -61 291
l-33 157 -83 0 c-70 0 -83 -3 -88 -17z m109 -222 c21 -145 21 -141 -19 -141
-19 0 -37 3 -39 8 -4 5 26 227 33 252 4 12 10 -21 25 -119z"/>
<path d="M460 611 l0 -60 48 -3 47 -3 3 -237 2 -238 65 0 65 0 2 238 3 237 48
3 47 3 0 60 0 59 -165 0 -165 0 0 -59z"/>
<path d="M860 370 l0 -301 68 3 67 3 3 122 3 123 39 0 40 0 0 -125 0 -125 65
0 65 0 0 300 0 300 -65 0 -65 0 0 -110 0 -110 -40 0 -40 0 0 110 0 110 -70 0
-70 0 0 -300z"/>
<path d="M1320 370 l0 -300 155 0 155 0 0 65 0 65 -90 0 -90 0 0 60 0 59 83 3
82 3 3 58 3 57 -86 0 -85 0 0 55 0 55 90 0 90 0 0 60 0 60 -155 0 -155 0 0
-300z"/>
<path d="M1730 565 c0 -58 -1 -170 -1 -250 0 -80 1 -167 1 -195 l0 -50 60 0
60 0 2 183 3 182 44 -182 45 -183 73 0 73 0 0 300 0 300 -60 0 -60 0 0 -175
c0 -110 -4 -175 -10 -175 -5 0 -10 8 -10 18 -1 9 -18 87 -39 172 l-37 155 -72
3 -72 3 0 -106z"/>
<path d="M2280 666 c0 -3 -7 -38 -16 -78 -35 -164 -104 -504 -104 -511 0 -4
30 -7 67 -5 51 2 68 7 70 18 1 8 4 32 8 53 l6 37 54 0 54 0 6 -37 c4 -21 7
-45 8 -53 3 -22 137 -28 137 -6 0 15 -60 310 -101 494 l-21 92 -84 0 c-46 0
-84 -2 -84 -4z m104 -219 c9 -53 16 -110 16 -127 0 -28 -3 -30 -35 -30 -42 0
-42 5 -20 150 8 52 15 99 15 104 0 29 11 -12 24 -97z"/>
<path d="M2880 410 c0 -28 3 -30 35 -30 32 0 35 2 35 30 0 28 -3 30 -35 30
-32 0 -35 -2 -35 -30z"/>
<path d="M2655 335 c-35 -34 -33 -65 4 -65 21 0 30 6 34 21 8 29 42 21 42 -10
0 -13 -7 -27 -15 -31 -100 -46 -95 -41 -98 -96 -2 -37 2 -56 13 -68 21 -20 69
-21 86 0 11 14 13 14 21 0 5 -9 22 -16 41 -16 l32 0 -3 112 c-1 62 -5 122 -7
134 -10 47 -110 60 -150 19z m72 -203 c-20 -20 -37 -7 -37 29 0 22 6 32 23 38
19 7 22 5 25 -22 2 -17 -3 -36 -11 -45z"/>
<path d="M2880 210 l0 -140 35 0 35 0 0 140 0 140 -35 0 -35 0 0 -140z"/>
</g>
</svg>
