<?xml version="1.0" standalone="no"?>
<!DOCTYPE svg PUBLIC "-//W3C//DTD SVG 20010904//EN"
 "http://www.w3.org/TR/2001/REC-SVG-20010904/DTD/svg10.dtd">
<svg version="1.0" xmlns="http://www.w3.org/2000/svg"
 width="900.000000pt" height="219.000000pt" viewBox="0 0 900.000000 219.000000"
 preserveAspectRatio="xMidYMid meet">
<metadata>
Created by potrace 1.10, written by Peter Selinger 2001-2011
</metadata>
<g transform="translate(0.000000,219.000000) scale(0.100000,-0.100000)"
fill="#000000" stroke="none">
<path d="M2574 2017 c-2 -7 -3 -418 -2 -915 l3 -904 200 1 c110 0 204 1 209 1
4 0 7 170 5 377 l-4 377 118 -1 c64 -1 120 -2 125 -2 4 -1 6 -168 4 -372 -2
-204 0 -374 5 -378 4 -3 98 -5 208 -3 l200 3 -2 907 -2 907 -118 1 c-65 0
-156 2 -203 4 l-85 4 -2 -329 c-1 -182 -2 -336 -2 -343 -1 -10 -29 -12 -123
-10 l-123 3 4 334 c2 218 0 336 -7 340 -6 3 -52 3 -104 0 -87 -6 -189 -4 -266
6 -20 2 -35 -1 -38 -8z m914 -115 c53 -11 51 7 53 -721 2 -790 2 -795 -16
-838 -15 -35 -34 -40 -124 -35 -68 4 -70 11 -71 332 -1 129 -6 251 -11 270 -5
21 -28 54 -56 82 -46 45 -52 48 -118 54 -88 8 -139 -6 -192 -51 -63 -54 -67
-74 -65 -366 2 -249 1 -257 -20 -285 -12 -16 -23 -31 -24 -33 -2 -2 -26 -5
-54 -7 -44 -3 -54 0 -83 25 l-32 29 -2 739 c-1 814 -3 795 58 807 60 12 97 7
123 -17 25 -23 25 -24 27 -231 1 -114 6 -229 11 -254 15 -83 106 -152 198
-151 88 0 129 14 176 60 63 62 70 95 67 333 -2 218 5 256 50 256 12 0 29 5 37
10 8 5 22 7 30 4 8 -4 25 -9 38 -12z"/>
<path d="M3956 2023 c-9 -9 -7 -1821 2 -1825 4 -2 218 -1 475 2 l469 5 0 190
1 190 -269 1 c-148 1 -273 2 -279 3 -11 1 -12 347 -2 358 4 3 117 5 252 4
l245 -2 -2 182 -3 183 -241 -3 c-183 -2 -244 0 -249 10 -12 19 -10 298 3 311
7 7 93 9 266 6 l256 -4 -2 196 -3 195 -70 -5 c-106 -8 -776 -6 -811 2 -18 4
-34 4 -38 1z m789 -136 c30 -27 43 -93 23 -120 -20 -26 -82 -36 -228 -37 -148
0 -193 -16 -244 -88 -29 -41 -31 -51 -36 -155 -3 -62 -3 -121 1 -133 9 -26 77
-97 109 -115 14 -7 81 -16 150 -21 184 -11 181 -10 203 -40 25 -34 17 -92 -16
-110 -12 -7 -60 -13 -107 -14 -165 -3 -215 -12 -263 -49 -69 -53 -80 -86 -78
-238 2 -140 9 -168 49 -210 50 -53 97 -70 202 -72 262 -4 244 -2 263 -34 24
-41 22 -94 -5 -126 l-23 -25 -313 0 c-298 -1 -315 0 -341 20 -25 17 -29 28
-33 82 -10 123 -6 1433 4 1459 5 15 19 31 31 37 14 7 136 11 325 11 297 0 303
-1 327 -22z"/>
<path d="M6228 2024 c-4 -3 -83 -6 -177 -6 -122 1 -170 -3 -173 -11 -2 -7 -1
-199 3 -427 7 -392 20 -615 38 -633 10 -10 47 108 56 180 4 29 7 200 7 380 0
407 2 415 114 398 59 -9 65 -25 65 -189 0 -72 1 -142 1 -156 0 -14 0 -43 -1
-65 -1 -22 -1 -47 0 -55 0 -8 0 -255 0 -548 -1 -363 -5 -540 -12 -556 -10 -20
-21 -25 -68 -30 -93 -10 -148 -2 -171 25 -23 29 -49 106 -85 254 -14 61 -33
133 -41 160 -9 28 -17 68 -18 90 -1 22 -5 45 -8 50 -3 6 -9 36 -13 69 -6 48
-5 58 6 54 8 -3 19 -15 26 -28 6 -12 26 -32 45 -44 19 -12 28 -14 21 -6 -6 8
-13 49 -16 90 -6 91 -24 199 -37 222 -6 10 -10 34 -10 53 0 20 -7 52 -15 72
-8 19 -15 50 -15 67 -1 17 -7 42 -15 56 -8 14 -14 44 -15 67 0 24 -6 60 -14
80 -8 21 -17 56 -21 78 -4 22 -10 45 -15 50 -4 6 -10 37 -13 69 -3 32 -11 64
-16 69 -6 6 -11 30 -11 53 0 23 -6 46 -12 51 -8 6 -106 10 -240 11 l-228 0 0
-909 0 -908 188 -3 c103 -2 190 -2 195 0 9 4 8 608 -2 863 -5 133 -10 191 -20
203 -20 24 -27 20 -39 -26 -27 -104 -31 -160 -32 -414 0 -148 -4 -318 -7 -377
l-6 -108 -39 -20 c-27 -14 -49 -18 -69 -14 -62 14 -59 -23 -59 803 l0 753 25
24 c13 14 37 26 52 26 15 1 42 3 58 5 17 1 50 -2 73 -8 66 -17 91 -62 128
-233 20 -98 51 -226 68 -290 10 -33 15 -69 12 -79 -3 -11 0 -28 5 -38 6 -11 8
-27 4 -36 -5 -13 -14 -6 -46 31 -22 26 -45 47 -50 47 -12 0 -12 -106 0 -129 5
-9 14 -46 20 -82 5 -35 17 -93 26 -129 9 -36 20 -91 25 -124 4 -32 13 -63 19
-69 6 -6 11 -27 11 -47 1 -19 7 -46 15 -60 8 -14 14 -46 15 -71 0 -25 7 -54
15 -65 8 -10 15 -31 15 -45 0 -15 7 -43 15 -62 8 -20 15 -54 15 -75 0 -21 7
-47 15 -58 8 -10 15 -36 15 -56 l0 -37 218 -3 c135 -2 221 1 227 7 14 14 4
1817 -11 1822 -5 2 -13 1 -16 -3z m-492 -981 c-11 -11 -19 6 -11 24 8 17 8 17
12 0 3 -10 2 -21 -1 -24z"/>
<path d="M487 2002 c-6 -8 -13 -44 -15 -81 -3 -36 -11 -75 -18 -86 -8 -11 -14
-39 -14 -63 0 -23 -7 -59 -15 -79 -8 -19 -15 -52 -15 -72 0 -20 -4 -41 -10
-47 -5 -5 -13 -39 -16 -74 -3 -36 -12 -82 -20 -103 -8 -20 -14 -54 -14 -75 0
-20 -7 -46 -15 -56 -9 -12 -15 -42 -15 -72 0 -28 -7 -68 -15 -87 -8 -20 -15
-49 -15 -65 0 -16 -7 -46 -15 -65 -8 -20 -15 -56 -15 -80 0 -25 -7 -61 -15
-80 -8 -20 -15 -49 -15 -64 0 -15 -7 -46 -15 -68 -8 -22 -14 -60 -15 -85 0
-26 -4 -50 -10 -56 -5 -5 -14 -39 -19 -74 -5 -36 -14 -78 -20 -93 -6 -16 -11
-45 -11 -66 0 -23 -6 -44 -16 -51 -8 -7 -14 -25 -12 -38 l3 -25 210 2 c116 1
214 6 219 11 5 5 13 55 17 112 5 57 12 126 16 153 l8 50 165 0 165 0 7 -90 c3
-49 11 -103 17 -118 6 -16 11 -48 11 -72 l0 -44 208 -3 c114 -2 215 1 225 5
17 8 17 10 3 26 -9 10 -16 31 -16 47 0 16 -7 47 -15 69 -8 22 -14 58 -15 80 0
22 -7 53 -15 69 -8 15 -15 43 -15 61 0 17 -7 54 -15 81 -8 27 -15 63 -15 79
-1 17 -7 41 -15 55 -8 14 -14 47 -15 73 0 26 -7 64 -15 84 -8 19 -15 50 -15
67 0 17 -7 44 -15 60 -8 15 -15 49 -15 75 0 25 -6 66 -14 91 -26 82 -38 134
-45 200 -4 36 -13 75 -19 87 -7 12 -12 36 -12 53 0 17 -7 47 -15 67 -8 19 -15
53 -15 75 0 22 -6 54 -14 71 -8 18 -17 52 -19 77 -3 25 -11 72 -18 105 l-13
61 -253 0 c-206 0 -256 -3 -266 -14z m417 -113 c14 -13 26 -31 26 -39 0 -9 4
-20 9 -25 9 -10 32 -112 51 -220 5 -33 17 -85 25 -115 8 -30 22 -95 31 -145 9
-49 19 -110 24 -135 4 -25 15 -71 24 -103 9 -32 16 -72 16 -88 0 -17 5 -40 11
-51 6 -11 17 -57 24 -102 7 -44 22 -115 33 -156 38 -147 65 -308 58 -354 -6
-39 -10 -44 -38 -50 -46 -9 -97 -7 -119 5 -25 13 -55 81 -65 145 -5 34 -17 58
-43 87 -55 61 -103 77 -232 77 -99 0 -113 -2 -149 -25 -70 -44 -93 -83 -131
-217 -18 -64 -58 -85 -138 -72 l-56 9 1 74 c1 41 6 91 12 110 25 89 34 129 37
166 2 22 8 63 15 90 6 28 19 88 28 135 9 47 20 90 23 95 4 6 9 39 13 73 4 35
12 76 18 90 5 15 14 52 19 82 14 82 24 132 54 265 15 66 31 145 35 175 8 54
31 139 51 191 19 48 61 59 211 55 87 -3 100 -5 122 -27z"/>
<path d="M691 1616 c-43 -46 -65 -119 -95 -321 -9 -60 -21 -130 -26 -155 -5
-25 -12 -88 -15 -140 -7 -94 -6 -95 24 -141 40 -59 87 -83 166 -83 102 0 175
53 196 141 8 38 -10 218 -31 308 -5 22 -10 56 -10 76 0 100 -97 374 -115 327
-11 -28 15 -394 30 -418 3 -5 10 -49 15 -96 5 -47 13 -91 18 -97 11 -14 21
-112 15 -138 -5 -17 -17 -19 -114 -19 -105 0 -109 1 -114 23 -4 12 -1 35 4 51
6 15 11 54 11 87 0 33 5 69 10 79 6 11 15 62 19 114 5 53 12 100 15 105 4 5 9
63 12 128 2 65 9 133 14 150 11 42 -1 49 -29 19z"/>
<path d="M1350 2003 c-1 -17 -1 -370 0 -384 0 -8 45 -10 153 -8 l152 4 -1 -40
c-1 -22 -2 -339 -3 -705 l-2 -665 198 -5 c125 -3 202 -1 208 5 7 7 8 248 5
703 -3 382 -2 698 1 703 3 5 72 8 159 7 l154 -3 0 199 0 199 -512 1 c-403 1
-512 -2 -512 -11z m887 -101 c26 -15 42 -92 26 -129 -16 -41 -21 -43 -111 -59
-62 -11 -81 -19 -109 -46 -79 -77 -74 -26 -74 -685 0 -547 -4 -653 -27 -667
-4 -2 -35 -8 -68 -11 -55 -7 -63 -5 -88 17 -36 31 -36 25 -37 711 0 326 -4
537 -10 550 -36 79 -99 127 -167 127 -15 0 -42 8 -61 18 -44 22 -65 83 -46
130 17 39 29 46 95 53 82 9 658 1 677 -9z"/>
<path d="M6820 1985 c-6 -16 -13 -57 -16 -90 -3 -33 -12 -77 -20 -98 -8 -20
-14 -52 -14 -71 0 -18 -7 -53 -15 -76 -8 -23 -15 -61 -15 -84 0 -22 -7 -50
-15 -60 -8 -11 -15 -39 -15 -62 0 -23 -7 -61 -15 -84 -8 -23 -15 -57 -15 -74
0 -18 -5 -37 -11 -43 -6 -6 -13 -39 -16 -74 -2 -35 -11 -81 -19 -102 -8 -20
-14 -54 -14 -75 0 -20 -7 -46 -15 -56 -9 -12 -15 -42 -15 -72 0 -28 -7 -68
-15 -87 -8 -20 -15 -49 -15 -64 0 -15 -7 -46 -15 -68 -8 -22 -14 -63 -15 -90
0 -28 -5 -56 -11 -62 -6 -6 -14 -35 -19 -64 -17 -102 -32 -164 -45 -191 -12
-25 -12 -29 3 -35 9 -5 110 -7 225 -5 l207 3 0 52 c0 29 7 87 15 130 8 43 15
94 15 113 l0 34 165 0 164 0 5 -32 c12 -74 18 -127 22 -203 3 -44 9 -83 12
-87 4 -4 104 -8 222 -9 213 -2 215 -2 218 19 2 12 -4 32 -12 44 -9 12 -16 34
-16 49 0 15 -7 46 -15 69 -8 23 -15 58 -15 77 0 18 -7 50 -15 70 -8 19 -15 52
-15 73 0 21 -7 54 -15 73 -8 20 -15 53 -15 74 0 21 -7 51 -15 67 -8 15 -15 45
-15 66 0 21 -7 57 -15 80 -8 23 -15 56 -15 72 0 17 -6 44 -14 61 -8 18 -16 61
-19 96 -3 35 -10 68 -16 74 -6 6 -11 26 -11 44 0 19 -7 50 -15 70 -8 19 -15
56 -15 82 0 25 -7 59 -15 75 -8 15 -15 44 -15 62 0 19 -7 51 -15 71 -8 19 -15
54 -15 77 -1 22 -7 52 -15 66 -8 14 -14 42 -15 63 0 22 -7 62 -15 91 l-15 52
-255 0 -255 0 -10 -31z m430 -104 c29 -34 57 -128 65 -216 1 -11 8 -42 14 -70
7 -27 17 -72 22 -100 6 -27 14 -69 19 -92 18 -77 30 -137 45 -218 18 -105 61
-297 74 -338 6 -18 15 -61 22 -97 18 -108 27 -153 39 -200 6 -25 14 -70 19
-100 5 -30 12 -64 16 -75 4 -14 -1 -30 -14 -46 -18 -23 -27 -26 -78 -24 -32 1
-69 7 -81 14 -29 15 -49 60 -58 129 -6 44 -14 58 -60 106 -49 50 -58 55 -110
62 -31 3 -99 4 -151 2 l-95 -5 -48 -48 c-48 -48 -90 -131 -90 -180 0 -13 -12
-37 -26 -54 -23 -28 -31 -31 -83 -31 -47 0 -61 4 -79 23 -27 28 -23 58 39 342
6 28 19 91 30 140 10 50 27 133 39 185 11 52 24 118 29 145 20 112 63 325 81
395 10 41 22 95 25 120 3 25 12 65 19 90 8 25 20 67 27 93 8 27 20 54 28 60
15 13 167 26 246 21 41 -3 55 -9 75 -33z"/>
<path d="M7018 1603 c-27 -41 -52 -125 -73 -243 -7 -41 -20 -107 -28 -147 -9
-39 -19 -130 -23 -201 l-7 -130 41 -41 c23 -23 57 -48 76 -56 41 -17 123 -20
162 -4 43 16 102 84 110 125 9 47 -2 197 -22 299 -27 140 -33 180 -31 195 7
51 -88 258 -109 238 -6 -7 11 -214 28 -333 5 -38 13 -101 17 -140 4 -38 12
-79 18 -90 6 -11 13 -64 17 -118 l6 -98 -112 3 -113 3 4 85 c2 47 7 90 12 96
5 7 14 57 18 112 5 56 12 106 16 112 3 5 11 56 16 113 18 188 21 257 11 257
-5 0 -21 -17 -34 -37z"/>
<path d="M8620 1235 l0 -106 123 3 122 3 0 100 0 100 -122 3 -123 3 0 -106z"/>
<path d="M8055 1071 c-79 -14 -175 -102 -175 -159 0 -10 -7 -27 -15 -38 -8
-10 -15 -31 -15 -46 l0 -28 105 0 c99 0 105 1 105 20 0 12 9 39 20 60 19 36
24 40 59 40 54 0 85 -38 78 -96 -7 -62 -48 -93 -152 -114 -80 -17 -119 -36
-166 -81 -44 -43 -47 -50 -54 -114 -4 -37 -5 -104 -1 -148 6 -73 10 -85 42
-124 19 -24 43 -43 53 -43 10 0 34 -7 54 -15 31 -13 40 -13 88 5 50 17 78 40
105 86 15 24 26 14 33 -33 l6 -38 115 0 c98 0 114 2 110 15 -2 8 -7 159 -11
335 -7 334 -12 387 -35 406 -8 6 -14 17 -14 24 0 16 -30 42 -76 65 -43 22
-190 34 -259 21z m266 -335 c8 -16 9 -49 4 -91 l-7 -67 -39 38 c-46 45 -48 65
-13 111 30 39 41 41 55 9z m-109 -221 c-4 -105 -14 -131 -61 -153 -20 -10 -30
-8 -58 9 -32 20 -33 22 -33 89 0 63 2 70 31 98 18 17 45 34 60 37 16 4 31 11
35 16 3 6 11 8 17 6 8 -3 11 -34 9 -102z m-212 -172 c0 -7 -4 -13 -8 -13 -15
0 -32 24 -32 44 0 18 1 19 20 1 11 -10 20 -24 20 -32z m320 30 c0 -5 -7 -16
-15 -27 -18 -24 -39 -12 -25 15 10 18 40 27 40 12z"/>
<path d="M8627 1053 c-3 -4 -5 -188 -5 -408 0 -220 -2 -409 -4 -420 -3 -19 3
-20 122 -23 l125 -3 -2 428 -1 428 -115 3 c-64 1 -118 -1 -120 -5z"/>
</g>
</svg>
